<svg id="Layer_1" data-name="Layer 1" xmlns="http://www.w3.org/2000/svg" viewBox="0 0 370.31 85.87">
  <title>Artboard 1</title>
  <g>
    <path d="M0,3.19H13.89l10,29,9.88-29H46.85v45L38,43.79v-30h-.18L26.57,48.22l-5.91-3.1L9.2,13.76H9V48.22L0,43.79Z" style="fill: #1d1d1b"/>
    <path d="M55.49,2.56h9.13V9.94H55.49Zm0,11h9.13V48.22l-9.13-4.43Z" style="fill: #1d1d1b"/>
    <path d="M83.88,44.32c-.91-.06-2-.18-3.37-.34a10.56,10.56,0,0,1-3.29-.88,11.69,11.69,0,0,1-2.66-1.88Q72,39.11,72,34V23.9A12,12,0,0,1,73.87,17a6.85,6.85,0,0,1,2-1.84,14,14,0,0,1,2.72-1.35,17.22,17.22,0,0,1,3-.62C82.88,13,84,12.93,85,12.88h3.31A49.89,49.89,0,0,1,97.46,14l-2.53,5.45a24,24,0,0,0-7.36-.95q-6.31,0-6.31,4.26V33.9c0,3.22,2.31,4.82,6.94,4.82a49.19,49.19,0,0,0,9.69-1.38L95.2,43.82a29.48,29.48,0,0,1-7.56.59C86.05,44.41,84.8,44.38,83.88,44.32Z" style="fill: #1d1d1b"/>
    <path d="M103,0h9.13V17.2q.87-4.32,9.57-4.32,5.82,0,8.16,2.1t2.35,6.6V48.22l-9.13-4.43V22.64a7.25,7.25,0,0,0-.35-2.59,2.08,2.08,0,0,0-1.34-1.19,10.62,10.62,0,0,0-3.19-.35,17.57,17.57,0,0,0-3.94.32A2.4,2.4,0,0,0,112.6,20a5.89,5.89,0,0,0-.44,2.65l0,25.58L103,43.79Z" style="fill: #1d1d1b"/>
    <path d="M142.46,43.63a4.94,4.94,0,0,1-2.94-2.81,16.85,16.85,0,0,1-.84-6.1,14.43,14.43,0,0,1,.91-5.7,5.62,5.62,0,0,1,2.94-3,14.1,14.1,0,0,1,5.59-.9h10.26V23.08a6,6,0,0,0-.53-2.88,3,3,0,0,0-1.94-1.31,17.49,17.49,0,0,0-4.22-.38,102.55,102.55,0,0,0-10.63.76l2.77-6a56.6,56.6,0,0,1,8.8-.34,35.61,35.61,0,0,1,9,.88,7.58,7.58,0,0,1,4.53,3,11.46,11.46,0,0,1,1.38,6.2V48.4l-9-4.61V41a5.94,5.94,0,0,1-2.88,2.56q-1.81.81-6.88.81A19.4,19.4,0,0,1,142.46,43.63Zm13.86-5.1a3,3,0,0,0,1.22-.37,1.91,1.91,0,0,0,.59-.82,2.67,2.67,0,0,0,.25-1.31V30.15h-6.25a10.91,10.91,0,0,0-3,.28,1.77,1.77,0,0,0-1.19,1.13,9.59,9.59,0,0,0-.31,3,9.05,9.05,0,0,0,.31,2.88,1.71,1.71,0,0,0,1.22,1.06,13.68,13.68,0,0,0,3.22.25A27.75,27.75,0,0,0,156.32,38.53Z" style="fill: #1d1d1b"/>
    <path d="M174.65,34.59V23.71q0-5.7,3.66-8.26t11.29-2.57q7.18,0,10.54,2.48t3.34,8.35v7.38H183.84v2.75a4,4,0,0,0,1.88,3.75c1.25.76,3.5,1.13,6.76,1.13a26.2,26.2,0,0,0,7.82-.82l2.31,5.32a56.39,56.39,0,0,1-11.89,1.19Q174.65,44.41,174.65,34.59Zm20.14-8.69V21.52a2.48,2.48,0,0,0-1.22-2.25,8.22,8.22,0,0,0-4.1-.76c-2.21,0-3.69.26-4.44.76a2.58,2.58,0,0,0-1.19,2.25V25.9Z" style="fill: #1d1d1b"/>
    <path d="M210.74,0h9.13V75.4l-9.13-4.61Z" style="fill: #1d1d1b"/>
    <path d="M241.55,44.16a31.94,31.94,0,0,1-4.72-.94,16,16,0,0,1-4.76-2,9.76,9.76,0,0,1-3.13-3.41,9.93,9.93,0,0,1-1.31-5.19V14.82q0-12.25,18.83-12.26a39.75,39.75,0,0,1,9.35.82l3.53,7.88a55.08,55.08,0,0,0-12.76-1.75c-1.54,0-2.74,0-3.59.12a10.78,10.78,0,0,0-2.66.63,4.21,4.21,0,0,0-2.94,4.44V32q0,5.51,10.07,5.51c2.88,0,3.95.05,9.16-1.16l3,6.73a65.78,65.78,0,0,1-13.14,1.37A42.26,42.26,0,0,1,241.55,44.16Z" style="fill: #1d1d1b"/>
    <path d="M275.36,44.22a23,23,0,0,1-3.88-.75,9.48,9.48,0,0,1-3.63-1.78,8.87,8.87,0,0,1-2.32-3.28,12.18,12.18,0,0,1-.93-5V24.46a13.73,13.73,0,0,1,.93-5.26A8.93,8.93,0,0,1,268,15.7a11.1,11.1,0,0,1,3.48-1.78,18.79,18.79,0,0,1,4.22-.91c1.58-.08,3-.13,4.31-.13,1.92,0,3.46.06,4.6.16a20.15,20.15,0,0,1,3.79.78A10.33,10.33,0,0,1,292,15.7a9.63,9.63,0,0,1,2.41,3.38,14,14,0,0,1,.93,5.38V33.4a12.64,12.64,0,0,1-.9,5,8.62,8.62,0,0,1-2.35,3.31,9.54,9.54,0,0,1-3.41,1.72,20.47,20.47,0,0,1-4.22.84,44.59,44.59,0,0,1-4.51.19A44.91,44.91,0,0,1,275.36,44.22Zm8.5-5.91A3.15,3.15,0,0,0,285.71,37a5,5,0,0,0,.53-2.56V23a4.14,4.14,0,0,0-1.31-3.5c-.88-.67-2.53-1-4.95-1s-4.06.34-4.94,1a4.14,4.14,0,0,0-1.31,3.5V34.47a5,5,0,0,0,.53,2.56,3.15,3.15,0,0,0,1.85,1.28,18.52,18.52,0,0,0,7.75,0Z" style="fill: #1d1d1b"/>
    <path d="M312.39,44.22a23.35,23.35,0,0,1-3.88-.75,9.48,9.48,0,0,1-3.63-1.78,8.74,8.74,0,0,1-2.31-3.28,12,12,0,0,1-.94-5V24.46a13.53,13.53,0,0,1,.94-5.26A8.83,8.83,0,0,1,305,15.7a10.93,10.93,0,0,1,3.47-1.78A18.91,18.91,0,0,1,312.7,13c1.58-.08,3-.13,4.32-.13,1.91,0,3.45.06,4.59.16a20.15,20.15,0,0,1,3.79.78,10.33,10.33,0,0,1,3.66,1.88,9.5,9.5,0,0,1,2.41,3.38,14,14,0,0,1,.93,5.38V33.4a12.64,12.64,0,0,1-.9,5,8.62,8.62,0,0,1-2.35,3.31,9.46,9.46,0,0,1-3.41,1.72,20.47,20.47,0,0,1-4.22.84,44.51,44.51,0,0,1-4.5.19A45,45,0,0,1,312.39,44.22Zm8.5-5.91A3.11,3.11,0,0,0,322.74,37a5,5,0,0,0,.53-2.56V23a4.14,4.14,0,0,0-1.31-3.5c-.88-.67-2.52-1-4.94-1s-4.07.34-4.95,1a4.14,4.14,0,0,0-1.31,3.5V34.47a5,5,0,0,0,.53,2.56,3.15,3.15,0,0,0,1.85,1.28,18.52,18.52,0,0,0,7.75,0Z" style="fill: #1d1d1b"/>
    <path d="M339.54,0h9.13V75.18l-9.13-4.39ZM349,26.77,359,13.51h10.45l-10.51,13.2L370.31,49.1l-12.24-5.28Z" style="fill: #1d1d1b"/>
  </g>
  <g>
    <path d="M226.53,72H234v5.3h-7.48Z" style="fill: #1d1d1b"/>
    <path d="M248.13,77.54a13.54,13.54,0,0,1-2.4-.46,6.35,6.35,0,0,1-2.19-1,4.56,4.56,0,0,1-1.37-1.69,5.56,5.56,0,0,1-.57-2.57V62.14h-4.71V58.69h4.71V53.31h7v5.38H255v3.45h-6.38V70.9a5.44,5.44,0,0,0,.28,2,1.76,1.76,0,0,0,1.11,1,8,8,0,0,0,2.49.29c.45,0,1.28-.06,2.5-.19v3.49c-1.5.13-2.8.19-3.89.19S248.93,77.62,248.13,77.54Z" style="fill: #1d1d1b"/>
    <path d="M258.35,71.63V64.94a5.38,5.38,0,0,1,2.81-5.06q2.8-1.58,8.66-1.58,5.52,0,8.09,1.52t2.57,5.12v4.54H265.41v1.69a2.37,2.37,0,0,0,1.44,2.3,13.33,13.33,0,0,0,5.18.69,42.69,42.69,0,0,0,7.78-.81v3.57a53.84,53.84,0,0,1-9.12.73Q258.34,77.65,258.35,71.63Zm15.46-5.34V63.6a1.49,1.49,0,0,0-.94-1.38,7.62,7.62,0,0,0-3.14-.46,8.23,8.23,0,0,0-3.41.46,1.52,1.52,0,0,0-.91,1.38v2.69Z" style="fill: #1d1d1b"/>
    <path d="M294.3,77.6c-.7,0-1.57-.11-2.59-.21a10.17,10.17,0,0,1-2.52-.54,9.24,9.24,0,0,1-2-1.15q-2-1.31-2-4.46V65.06a6.26,6.26,0,0,1,1.44-4.22,5,5,0,0,1,1.56-1.14,12.56,12.56,0,0,1,2.09-.82,15.88,15.88,0,0,1,2.3-.39c1-.1,1.81-.16,2.55-.19h2.54a47.42,47.42,0,0,1,7.06.69v3.69a44.26,44.26,0,0,0-7.59-.92q-4.85,0-4.84,2.61V71.2q0,3,5.32,3a47,47,0,0,0,7.44-.84V77a53,53,0,0,1-7.87.65C296,77.65,295,77.64,294.3,77.6Z" style="fill: #1d1d1b"/>
    <path d="M309,50.39h7V61c.45-1.77,2.89-2.65,7.34-2.65q4.47,0,6.27,1.29a4.64,4.64,0,0,1,1.8,4V77.27h-7v-13a3.58,3.58,0,0,0-.27-1.59,1.5,1.5,0,0,0-1-.73,10.21,10.21,0,0,0-2.45-.21,16.86,16.86,0,0,0-3,.19,1.92,1.92,0,0,0-1.3.71,3.11,3.11,0,0,0-.33,1.63v13h-7Z" style="fill: #1d1d1b"/>
  </g>
</svg>
